<svg width="454" height="144" viewBox="0 0 454 144" fill="none" xmlns="http://www.w3.org/2000/svg">
<rect y="71" width="100" height="100" transform="rotate(-45 0 71)" fill="#0084FF"/>
<rect x="211" y="72.4213" width="100" height="100" transform="rotate(-45 211 72.4213)" fill="#0084FF"/>
<path d="M357.403 14.7107L454 14.7107L412.597 135.711H316L357.403 14.7107Z" fill="#0084FF"/>
<path d="M393.9 42.7107H399.5L376.6 107.211H371L393.9 42.7107Z" fill="white"/>
<circle cx="173" cy="71" r="65" fill="#00B51B"/>
<path d="M70.88 99.12C67.2 99.12 63.9467 98.48 61.12 97.2C58.3467 95.92 56.16 94.1333 54.56 91.84C52.96 89.5467 52.1067 86.9867 52 84.16H57.92C58.1867 86.88 59.3867 89.28 61.52 91.36C63.6533 93.3867 66.7733 94.4 70.88 94.4C74.6667 94.4 77.6533 93.44 79.84 91.52C82.08 89.5467 83.2 87.0667 83.2 84.08C83.2 81.68 82.5867 79.76 81.36 78.32C80.1333 76.8267 78.6133 75.7333 76.8 75.04C74.9867 74.2933 72.48 73.4933 69.28 72.64C65.5467 71.6267 62.5867 70.64 60.4 69.68C58.2133 68.72 56.3467 67.2267 54.8 65.2C53.2533 63.1733 52.48 60.4267 52.48 56.96C52.48 54.08 53.2267 51.52 54.72 49.28C56.2133 46.9867 58.32 45.2 61.04 43.92C63.76 42.64 66.88 42 70.4 42C75.5733 42 79.7333 43.28 82.88 45.84C86.08 48.3467 87.92 51.6 88.4 55.6H82.32C81.9467 53.3067 80.6933 51.28 78.56 49.52C76.4267 47.7067 73.5467 46.8 69.92 46.8C66.56 46.8 63.76 47.7067 61.52 49.52C59.28 51.28 58.16 53.7067 58.16 56.8C58.16 59.1467 58.7733 61.04 60 62.48C61.2267 63.92 62.7467 65.0133 64.56 65.76C66.4267 66.5067 68.9333 67.3067 72.08 68.16C75.7067 69.1733 78.64 70.1867 80.88 71.2C83.12 72.16 85.0133 73.6533 86.56 75.68C88.1067 77.7067 88.88 80.4267 88.88 83.84C88.88 86.4533 88.1867 88.9333 86.8 91.28C85.4133 93.6267 83.36 95.52 80.64 96.96C77.92 98.4 74.6667 99.12 70.88 99.12Z" fill="white"/>
<path d="M172.68 99.12C167.507 99.12 162.813 97.92 158.6 95.52C154.387 93.0667 151.053 89.68 148.6 85.36C146.2 80.9867 145 76.0533 145 70.56C145 65.0667 146.2 60.16 148.6 55.84C151.053 51.4667 154.387 48.08 158.6 45.68C162.813 43.2267 167.507 42 172.68 42C177.907 42 182.627 43.2267 186.84 45.68C191.053 48.08 194.36 51.4667 196.76 55.84C199.16 60.16 200.36 65.0667 200.36 70.56C200.36 76.0533 199.16 80.9867 196.76 85.36C194.36 89.68 191.053 93.0667 186.84 95.52C182.627 97.92 177.907 99.12 172.68 99.12ZM172.68 94.24C176.84 94.24 180.573 93.28 183.88 91.36C187.187 89.44 189.8 86.6933 191.72 83.12C193.64 79.4933 194.6 75.3067 194.6 70.56C194.6 65.8133 193.64 61.6533 191.72 58.08C189.8 54.5067 187.187 51.76 183.88 49.84C180.573 47.92 176.84 46.96 172.68 46.96C168.52 46.96 164.787 47.92 161.48 49.84C158.173 51.76 155.56 54.5067 153.64 58.08C151.72 61.6533 150.76 65.8133 150.76 70.56C150.76 75.3067 151.72 79.4933 153.64 83.12C155.56 86.6933 158.173 89.44 161.48 91.36C164.787 93.28 168.52 94.24 172.68 94.24Z" fill="white"/>
<path d="M297.16 98.7107L283.32 75.3507H273V98.7107H267.4V42.7906H284.2C290.44 42.7906 295.16 44.284 298.36 47.2707C301.613 50.2573 303.24 54.1773 303.24 59.0307C303.24 63.084 302.067 66.5507 299.72 69.4307C297.427 72.2573 294.013 74.0973 289.48 74.9507L303.88 98.7107H297.16ZM273 70.7907H284.28C288.653 70.7907 291.933 69.724 294.12 67.5907C296.36 65.4573 297.48 62.604 297.48 59.0307C297.48 55.3507 296.413 52.524 294.28 50.5507C292.147 48.524 288.787 47.5107 284.2 47.5107H273V70.7907Z" fill="white"/>
</svg>
